<?xml version="1.0" encoding="UTF-8" standalone="no"?>
<!-- Created with Inkscape (http://www.inkscape.org/) -->

<svg
   xmlns:dc="http://purl.org/dc/elements/1.1/"
   xmlns:cc="http://creativecommons.org/ns#"
   xmlns:rdf="http://www.w3.org/1999/02/22-rdf-syntax-ns#"
   xmlns:svg="http://www.w3.org/2000/svg"
   xmlns="http://www.w3.org/2000/svg"
   xmlns:sodipodi="http://sodipodi.sourceforge.net/DTD/sodipodi-0.dtd"
   xmlns:inkscape="http://www.inkscape.org/namespaces/inkscape"
   width="37.160522mm"
   height="37.160522mm"
   viewBox="0 0 37.160523 37.160523"
   version="1.1"
   id="svg3557"
   inkscape:version="0.92.2 (5c3e80d, 2017-08-06)"
   sodipodi:docname="bird_logo.svg">
  <defs
     id="defs3551" />
  <sodipodi:namedview
     id="base"
     pagecolor="#ffffff"
     bordercolor="#666666"
     borderopacity="1.0"
     inkscape:pageopacity="0.0"
     inkscape:pageshadow="2"
     inkscape:zoom="1.979899"
     inkscape:cx="74.31096"
     inkscape:cy="11.462261"
     inkscape:document-units="mm"
     inkscape:current-layer="layer1"
     showgrid="false"
     inkscape:window-width="1600"
     inkscape:window-height="848"
     inkscape:window-x="-8"
     inkscape:window-y="22"
     inkscape:window-maximized="1" />
  <metadata
     id="metadata3554">
    <rdf:RDF>
      <cc:Work
         rdf:about="">
        <dc:format>image/svg+xml</dc:format>
        <dc:type
           rdf:resource="http://purl.org/dc/dcmitype/StillImage" />
        <dc:title />
      </cc:Work>
    </rdf:RDF>
  </metadata>
  <g
     inkscape:label="Layer 1"
     inkscape:groupmode="layer"
     id="layer1"
     transform="translate(-15.713933,-106.5006)">
    <circle
       style="opacity:0.98999999;vector-effect:none;fill:#100052;fill-opacity:0.99215686;fill-rule:nonzero;stroke:none;stroke-width:0.05430185;stroke-linecap:round;stroke-linejoin:round;stroke-miterlimit:4;stroke-dasharray:none;stroke-dashoffset:0;stroke-opacity:1;paint-order:stroke markers fill"
       id="path3499"
       cx="166.24719"
       cy="128.82947"
       r="18.100616" />
    <g
       style="fill:#100052;fill-opacity:0.99215686;stroke:none"
       transform="matrix(0.0861493,0,0,0.0861493,57.546369,106.82545)"
       id="g3323">
      <g
         style="fill:#100052;fill-opacity:0.99215686;stroke:none"
         id="g3267">
        <path
           style="fill:#100052;fill-opacity:0.99215686;stroke:none"
           inkscape:connector-curvature="0"
           d="M 409.132,114.573 C 389.524,80.977 362.927,54.379 329.334,34.773 295.736,15.166 259.057,5.365 219.271,5.365 c -39.781,0 -76.472,9.804 -110.063,29.408 -33.596,19.605 -60.192,46.204 -79.8,79.8 C 9.803,148.168 0,184.854 0,224.63 c 0,47.78 13.94,90.745 41.827,128.906 27.884,38.164 63.906,64.572 108.063,79.227 5.14,0.954 8.945,0.283 11.419,-1.996 2.475,-2.282 3.711,-5.14 3.711,-8.562 0,-0.571 -0.049,-5.708 -0.144,-15.417 -0.098,-9.709 -0.144,-18.179 -0.144,-25.406 l -6.567,1.136 c -4.187,0.767 -9.469,1.092 -15.846,1 -6.374,-0.089 -12.991,-0.757 -19.842,-1.999 -6.854,-1.231 -13.229,-4.086 -19.13,-8.559 -5.898,-4.473 -10.085,-10.328 -12.56,-17.556 l -2.855,-6.57 c -1.903,-4.374 -4.899,-9.233 -8.992,-14.559 -4.093,-5.331 -8.232,-8.945 -12.419,-10.848 l -1.999,-1.431 c -1.332,-0.951 -2.568,-2.098 -3.711,-3.429 -1.142,-1.331 -1.997,-2.663 -2.568,-3.997 -0.572,-1.335 -0.098,-2.43 1.427,-3.289 1.525,-0.859 4.281,-1.276 8.28,-1.276 l 5.708,0.853 c 3.807,0.763 8.516,3.042 14.133,6.851 5.614,3.806 10.229,8.754 13.846,14.842 4.38,7.806 9.657,13.754 15.846,17.847 6.184,4.093 12.419,6.136 18.699,6.136 6.28,0 11.704,-0.476 16.274,-1.423 4.565,-0.952 8.848,-2.383 12.847,-4.285 1.713,-12.758 6.377,-22.559 13.988,-29.41 -10.848,-1.14 -20.601,-2.857 -29.264,-5.14 -8.658,-2.286 -17.605,-5.996 -26.835,-11.14 -9.235,-5.137 -16.896,-11.516 -22.985,-19.126 -6.09,-7.614 -11.088,-17.61 -14.987,-29.979 -3.901,-12.374 -5.852,-26.648 -5.852,-42.826 0,-23.035 7.52,-42.637 22.557,-58.817 -7.044,-17.318 -6.379,-36.732 1.997,-58.24 5.52,-1.715 13.706,-0.428 24.554,3.853 10.85,4.283 18.794,7.952 23.84,10.994 5.046,3.041 9.089,5.618 12.135,7.708 17.705,-4.947 35.976,-7.421 54.818,-7.421 18.842,0 37.117,2.474 54.823,7.421 l 10.849,-6.849 c 7.419,-4.57 16.18,-8.758 26.262,-12.565 10.088,-3.805 17.802,-4.853 23.134,-3.138 8.562,21.509 9.325,40.922 2.279,58.24 15.036,16.18 22.559,35.787 22.559,58.817 0,16.178 -1.958,30.497 -5.853,42.966 -3.9,12.471 -8.941,22.457 -15.125,29.979 -6.191,7.521 -13.901,13.85 -23.131,18.986 -9.232,5.14 -18.182,8.85 -26.84,11.136 -8.662,2.286 -18.415,4.004 -29.263,5.146 9.894,8.562 14.842,22.077 14.842,40.539 v 60.237 c 0,3.422 1.19,6.279 3.572,8.562 2.379,2.279 6.136,2.95 11.276,1.995 44.163,-14.653 80.185,-41.062 108.068,-79.226 27.88,-38.161 41.825,-81.126 41.825,-128.906 -0.01,-39.771 -9.818,-76.454 -29.414,-110.049 z"
           id="path3265" />
      </g>
      <g
         style="fill:#100052;fill-opacity:0.99215686;stroke:none"
         id="g3269" />
      <g
         style="fill:#100052;fill-opacity:0.99215686;stroke:none"
         id="g3271" />
      <g
         style="fill:#100052;fill-opacity:0.99215686;stroke:none"
         id="g3273" />
      <g
         style="fill:#100052;fill-opacity:0.99215686;stroke:none"
         id="g3275" />
      <g
         style="fill:#100052;fill-opacity:0.99215686;stroke:none"
         id="g3277" />
      <g
         style="fill:#100052;fill-opacity:0.99215686;stroke:none"
         id="g3279" />
      <g
         style="fill:#100052;fill-opacity:0.99215686;stroke:none"
         id="g3281" />
      <g
         style="fill:#100052;fill-opacity:0.99215686;stroke:none"
         id="g3283" />
      <g
         style="fill:#100052;fill-opacity:0.99215686;stroke:none"
         id="g3285" />
      <g
         style="fill:#100052;fill-opacity:0.99215686;stroke:none"
         id="g3287" />
      <g
         style="fill:#100052;fill-opacity:0.99215686;stroke:none"
         id="g3289" />
      <g
         style="fill:#100052;fill-opacity:0.99215686;stroke:none"
         id="g3291" />
      <g
         style="fill:#100052;fill-opacity:0.99215686;stroke:none"
         id="g3293" />
      <g
         style="fill:#100052;fill-opacity:0.99215686;stroke:none"
         id="g3295" />
      <g
         style="fill:#100052;fill-opacity:0.99215686;stroke:none"
         id="g3297" />
    </g>
    <path
       style="opacity:0.98999999;vector-effect:none;fill:#100052;fill-opacity:1;fill-rule:nonzero;stroke:none;stroke-width:1.63986993;stroke-linecap:round;stroke-linejoin:round;stroke-miterlimit:4;stroke-dasharray:none;stroke-dashoffset:0;stroke-opacity:1;paint-order:stroke markers fill"
       d="M 71.169922,0 A 70.224609,70.224609 0 0 0 2.5273438,55.554688 C 16.612585,61.065768 33.074659,68.751284 40.935547,69.275391 40.464164,67.25425 40.21875,65.140607 40.21875,62.976562 c 0,-15.258481 12.379536,-27.636718 27.646484,-27.636718 h 0.002 c 7.957757,0 15.130048,3.351546 20.173828,8.732422 6.298922,-1.2463 12.212738,-3.54479 17.568368,-6.710938 -2.07134,6.44194 -6.442961,11.86428 -12.152353,15.283203 5.59166,-0.665423 10.913173,-2.155833 15.873053,-4.353515 -3.69668,5.5409 -8.39473,10.407385 -13.826178,14.28125 l 0.0918,3.580078 c 0,27.282368 -15.509268,57.679196 -44.544922,71.322266 A 70.224609,70.224609 0 0 0 71.169922,140.44922 70.224609,70.224609 0 0 0 141.39453,70.224609 70.224609,70.224609 0 0 0 71.169922,0 Z M 2.5273438,55.556641 a 70.224609,70.224609 0 0 0 -0.9472657,5.769531 70.224612,70.224612 0 0 1 0.9472657,-5.769531 z m -1.1464844,7.09375 a 70.224609,70.224609 0 0 0 -0.2792969,4.429687 70.224612,70.224612 0 0 1 0.2792969,-4.429687 z m -0.4355469,7.574218 a 70.224609,70.224609 0 0 0 0.3027344,6.019532 70.224612,70.224612 0 0 1 -0.3027344,-6.019532 z m 0.7050781,9.326172 a 70.224609,70.224609 0 0 0 0.5605469,3.697266 70.224612,70.224612 0 0 1 -0.5605469,-3.697266 z m 1.2539063,6.791016 a 70.224609,70.224609 0 0 0 0.9609375,3.755859 70.224612,70.224612 0 0 1 -0.9609375,-3.755859 z m 1.921875,6.646484 a 70.224609,70.224609 0 0 0 1.3808593,3.779297 70.224612,70.224612 0 0 1 -1.3808593,-3.779297 z m 2.5527343,6.398438 A 70.224609,70.224609 0 0 0 9.2011719,103.1543 70.224612,70.224612 0 0 1 7.3789062,99.386719 Z m 3.1933598,6.156251 a 70.224609,70.224609 0 0 0 2.248046,3.66211 70.224612,70.224612 0 0 1 -2.248046,-3.66211 z m 3.77539,5.79883 a 70.224609,70.224609 0 0 0 2.679688,3.52148 70.224612,70.224612 0 0 1 -2.679688,-3.52148 z m 4.339844,5.41211 a 70.224609,70.224609 0 0 0 3.085938,3.30859 70.224612,70.224612 0 0 1 -3.085938,-3.30859 z m 4.863281,4.96484 a 70.224609,70.224609 0 0 0 3.476563,3.05078 70.224612,70.224612 0 0 1 -3.476563,-3.05078 z m 5.314453,4.44922 a 70.224609,70.224609 0 0 0 3.835938,2.74023 70.224612,70.224612 0 0 1 -3.835938,-2.74023 z m 5.789063,3.93945 a 70.224609,70.224609 0 0 0 4.117187,2.35742 70.224612,70.224612 0 0 1 -4.117187,-2.35742 z m 6.09375,3.3125 a 70.224609,70.224609 0 0 0 4.445312,1.98633 70.224612,70.224612 0 0 1 -4.445312,-1.98633 z m 7.107422,2.95899 a 70.224609,70.224609 0 0 0 3.193359,1.0957 70.224612,70.224612 0 0 1 -3.193359,-1.0957 z"
       transform="matrix(0.26458333,0,0,0.26458333,15.463819,106.5006)"
       id="path2051-4"
       inkscape:connector-curvature="0" />
    <circle
       r="18.580261"
       cy="128.74059"
       cx="121.27307"
       id="circle3347"
       style="opacity:0.98999999;vector-effect:none;fill:#100052;fill-opacity:1;fill-rule:nonzero;stroke:none;stroke-width:0.43388224;stroke-linecap:round;stroke-linejoin:round;stroke-miterlimit:4;stroke-dasharray:none;stroke-dashoffset:0;stroke-opacity:1;paint-order:stroke markers fill" />
    <g
       id="g3356"
       style="fill:#ffffff;fill-opacity:1"
       transform="matrix(0.17615548,0,0,0.17615548,101.79916,105.66384)">
      <path
         style="color:#000000;fill:#ffffff;fill-opacity:1;stroke-width:1.57783508"
         d="m 6984.8496,-1393.6348 v 0.016 h 0.031 c 11.5339,0.032 21.775,2e-4 34.4765,13.8535 9.8784,-1.0283 20.1726,-1.5608 30.502,-1.5586 h 0.4746 0.016 c 10.4611,-0.016 20.891,0.5192 30.8945,1.5605 12.7015,-13.8533 22.9427,-13.8219 34.4766,-13.8535 h 0.031 v -0.018 c 5.4561,0 27.2488,0 42.4433,42.666 l 16.3262,58.5372 c 12.0941,43.5483 -3.8709,44.6207 -23.7832,44.6523 -29.5371,-1.0887 -45.8828,-22.5474 -45.8828,-43.9902 -16.1638,2.6524 -34.9967,3.9879 -53.8516,4.0175 v 0 c -0.2346,0 -0.4687,0.01 -0.7031,0.01 -0.2344,0 -0.4686,-0.01 -0.7031,-0.01 v 0 c -18.855,-0.03 -37.6878,-1.3651 -53.8516,-4.0175 0,21.4428 -16.3457,42.9015 -45.8828,43.9902 -19.9123,-0.032 -35.8773,-1.104 -23.7832,-44.6523 l 16.3261,-58.5372 c 15.1946,-42.666 36.9873,-42.666 42.4434,-42.666 z m 65.4297,33.5157 h -0.012 v 0.01 c 0,0 -31.0856,28.5517 -36.668,38.6972 l 20.3379,-0.8125 v 17.7364 c 0,0.8068 7.7276,0.5095 15.6621,0.1445 v 0 c 0.2458,-0.011 0.4767,-0.02 0.7227,-0.031 0,10e-5 0.01,-2e-4 0.012,0 0.2274,0.01 0.4407,0.019 0.668,0.029 7.9345,0.365 15.6621,0.6622 15.6621,-0.1446 v -17.7363 l 20.3379,0.8125 c -5.5824,-10.1455 -36.668,-38.6973 -36.668,-38.6973 v -0.01 h -0.012 v 0.012 c 0,1e-4 -0.019,0.019 -0.02,0.02 l -0.023,-0.022 z"
         transform="matrix(0.63377981,0,0,0.63377981,-4357.7887,968.03967)"
         id="path3354"
         inkscape:connector-curvature="0"
         sodipodi:nodetypes="cccccccccccccccccscccccccccccccscccccscccccsccc" />
    </g>
    <path
       sodipodi:type="star"
       style="opacity:0.98999999;vector-effect:none;fill:#ffffff;fill-opacity:1;fill-rule:nonzero;stroke:none;stroke-width:0.05430185;stroke-linecap:round;stroke-linejoin:round;stroke-miterlimit:4;stroke-dasharray:none;stroke-dashoffset:0;stroke-opacity:1;paint-order:stroke markers fill"
       id="path3506"
       sodipodi:sides="3"
       sodipodi:cx="166.24718"
       sodipodi:cy="128.82945"
       sodipodi:r1="12.670433"
       sodipodi:r2="6.3352165"
       sodipodi:arg1="-1.3476561e-007"
       sodipodi:arg2="1.0471974"
       inkscape:flatsided="false"
       inkscape:rounded="0"
       inkscape:randomized="0"
       d="m 178.91761,128.82945 -9.50282,5.48646 -9.50283,5.48646 0,-10.97292 0,-10.97291 9.50282,5.48645 z"
       inkscape:transform-center-x="-3.1675789"
       inkscape:transform-center-y="-6.7094186e-006" />
  </g>
</svg>
