<?xml version="1.0" encoding="UTF-8" standalone="no"?>
<!-- Created with Inkscape (http://www.inkscape.org/) -->

<svg
   xmlns:dc="http://purl.org/dc/elements/1.1/"
   xmlns:cc="http://creativecommons.org/ns#"
   xmlns:rdf="http://www.w3.org/1999/02/22-rdf-syntax-ns#"
   xmlns:svg="http://www.w3.org/2000/svg"
   xmlns="http://www.w3.org/2000/svg"
   xmlns:sodipodi="http://sodipodi.sourceforge.net/DTD/sodipodi-0.dtd"
   xmlns:inkscape="http://www.inkscape.org/namespaces/inkscape"
   width="225.79593mm"
   height="67.435783mm"
   viewBox="0 0 225.79593 67.435783"
   version="1.1"
   id="svg7724"
   inkscape:version="0.92.2 (5c3e80d, 2017-08-06)"
   sodipodi:docname="dc_bg.svg">
  <defs
     id="defs7718" />
  <sodipodi:namedview
     id="base"
     pagecolor="#ffffff"
     bordercolor="#666666"
     borderopacity="1.0"
     inkscape:pageopacity="0.0"
     inkscape:pageshadow="2"
     inkscape:zoom="0.7"
     inkscape:cx="501.04675"
     inkscape:cy="52.496915"
     inkscape:document-units="mm"
     inkscape:current-layer="layer1"
     showgrid="false"
     inkscape:window-width="1600"
     inkscape:window-height="848"
     inkscape:window-x="-8"
     inkscape:window-y="22"
     inkscape:window-maximized="1" />
  <metadata
     id="metadata7721">
    <rdf:RDF>
      <cc:Work
         rdf:about="">
        <dc:format>image/svg+xml</dc:format>
        <dc:type
           rdf:resource="http://purl.org/dc/dcmitype/StillImage" />
        <dc:title></dc:title>
      </cc:Work>
    </rdf:RDF>
  </metadata>
  <g
     inkscape:label="Layer 1"
     inkscape:groupmode="layer"
     id="layer1"
     transform="translate(24.969586,-86.011273)">
    <path
       inkscape:export-ydpi="43.909916"
       inkscape:export-xdpi="43.909916"
       inkscape:export-filename="C:\Users\Rowan\Dropbox\New folder\dc_bg.png"
       style="opacity:1;vector-effect:none;fill:#100624;fill-opacity:1;fill-rule:nonzero;stroke:none;stroke-width:8798.64648438;stroke-linecap:round;stroke-linejoin:bevel;stroke-miterlimit:4;stroke-dasharray:none;stroke-dashoffset:0;stroke-opacity:1;paint-order:stroke fill markers"
       d="M -24.969586,86.011273 H 200.82635 V 153.44706 H -24.969586 Z"
       id="path2125-7"
       inkscape:connector-curvature="0" />
    <path
       style="fill:#fdfeff;fill-opacity:0.10196078;stroke:none;stroke-width:0.34494311px;stroke-linecap:butt;stroke-linejoin:miter;stroke-opacity:1"
       d="m -24.969455,86.011273 v 41.528177 c 18.987823,2.82068 33.8295112,-2.71805 33.8295112,-2.71805 9.2687118,2.19528 13.7808898,-2.6832 13.7808898,-2.6832 13.415174,3.90256 21.46433,-4.75621 21.46433,-4.75621 28.738564,-1.12328 30.81877,-17.33499 29.020187,-26.079101 4.756665,0.824433 8.843265,1.517944 11.923165,1.517944 8.170909,0 19.268792,-1.585599 19.268792,-1.585599 21.95206,5.366083 40.24545,-1.463518 40.24545,-1.463518 9.26872,2.195278 13.78089,-2.682812 13.78089,-2.682812 6.92109,2.013402 12.40887,0.681918 16.10501,-1.077631 z"
       id="path2422-7"
       inkscape:connector-curvature="0" />
    <rect
       style="opacity:1;vector-effect:none;fill:#ffffff;fill-opacity:1;fill-rule:nonzero;stroke:none;stroke-width:9.27822495;stroke-linecap:round;stroke-linejoin:bevel;stroke-miterlimit:4;stroke-dasharray:none;stroke-dashoffset:0;stroke-opacity:1;paint-order:stroke fill markers"
       id="rect2162-7"
       width="0.99088144"
       height="1.0125796"
       x="144.35179"
       y="97.357277"
       ry="0.47354376" />
    <rect
       ry="0.47354376"
       y="166.045"
       x="142.32837"
       height="1.0125796"
       width="0.99088144"
       id="rect2164-0"
       style="opacity:1;vector-effect:none;fill:#ffffff;fill-opacity:1;fill-rule:nonzero;stroke:none;stroke-width:9.27822495;stroke-linecap:round;stroke-linejoin:bevel;stroke-miterlimit:4;stroke-dasharray:none;stroke-dashoffset:0;stroke-opacity:1;paint-order:stroke fill markers"
       transform="rotate(-15)" />
    <rect
       style="opacity:1;vector-effect:none;fill:#ffffff;fill-opacity:1;fill-rule:nonzero;stroke:none;stroke-width:9.27822495;stroke-linecap:round;stroke-linejoin:bevel;stroke-miterlimit:4;stroke-dasharray:none;stroke-dashoffset:0;stroke-opacity:1;paint-order:stroke fill markers"
       id="rect2166-9"
       width="0.99088144"
       height="1.0125796"
       x="144.71675"
       y="145.98991"
       ry="0.47354376" />
    <rect
       ry="0.47354376"
       y="89.589157"
       x="51.213287"
       height="1.0125796"
       width="0.99088144"
       id="rect2168-3"
       style="opacity:1;vector-effect:none;fill:#ffffff;fill-opacity:1;fill-rule:nonzero;stroke:none;stroke-width:9.27822495;stroke-linecap:round;stroke-linejoin:bevel;stroke-miterlimit:4;stroke-dasharray:none;stroke-dashoffset:0;stroke-opacity:1;paint-order:stroke fill markers" />
    <rect
       style="opacity:1;vector-effect:none;fill:#ffffff;fill-opacity:1;fill-rule:nonzero;stroke:none;stroke-width:9.27822495;stroke-linecap:round;stroke-linejoin:bevel;stroke-miterlimit:4;stroke-dasharray:none;stroke-dashoffset:0;stroke-opacity:1;paint-order:stroke fill markers"
       id="rect2170-1"
       width="0.99088144"
       height="1.0125796"
       x="11.152616"
       y="116.70998"
       ry="0.47354376" />
    <rect
       ry="0.47354376"
       y="121.90329"
       x="111.09943"
       height="1.0125796"
       width="0.99088144"
       id="rect2450-2"
       style="opacity:1;vector-effect:none;fill:#ffffff;fill-opacity:1;fill-rule:nonzero;stroke:none;stroke-width:9.27822495;stroke-linecap:round;stroke-linejoin:bevel;stroke-miterlimit:4;stroke-dasharray:none;stroke-dashoffset:0;stroke-opacity:1;paint-order:stroke fill markers" />
    <rect
       ry="0.47354376"
       y="147.89603"
       x="162.73843"
       height="1.0125796"
       width="0.99088144"
       id="rect2452-1"
       style="opacity:1;vector-effect:none;fill:#ffffff;fill-opacity:1;fill-rule:nonzero;stroke:none;stroke-width:9.27822495;stroke-linecap:round;stroke-linejoin:bevel;stroke-miterlimit:4;stroke-dasharray:none;stroke-dashoffset:0;stroke-opacity:1;paint-order:stroke fill markers" />
    <rect
       style="opacity:1;vector-effect:none;fill:#ffffff;fill-opacity:1;fill-rule:nonzero;stroke:none;stroke-width:9.27822495;stroke-linecap:round;stroke-linejoin:bevel;stroke-miterlimit:4;stroke-dasharray:none;stroke-dashoffset:0;stroke-opacity:1;paint-order:stroke fill markers"
       id="rect2456-2"
       width="0.99088144"
       height="1.0125796"
       x="78.01606"
       y="96.17173"
       ry="0.47354376" />
    <path
       style="fill:#faf8f8;fill-opacity:0.10196078;stroke:none;stroke-width:0.34494311px;stroke-linecap:butt;stroke-linejoin:miter;stroke-opacity:1"
       d="m 200.82618,88.17522 c -14.59977,2.084826 -15.20914,12.1902 -15.20914,12.1902 -25.24423,-0.731695 -24.5124,16.21994 -24.5124,17.68353 0,0.73117 1.61369,4.99442 5.23647,8.98611 -4.91386,-0.77845 -8.97225,0.45962 -8.97225,0.45962 -5.36601,-7.07345 -18.41523,-6.46402 -18.41523,-6.46402 -1.40236,-5.18283 -11.24912,-6.52477 -20.7458,-6.5706 -9.49658,-0.0459 -18.641694,1.20452 -18.641694,1.20452 -6.829457,-3.29281 -15.732374,5.12206 -15.732374,5.12206 -14.634873,2.07334 -15.244677,12.19561 -15.244677,12.19561 -25.244883,-0.73175 -24.513065,16.21996 -24.513065,17.68354 0,0.32845 0.328791,1.37231 1.015687,2.78102 H 200.82618 Z"
       id="path2420-3"
       inkscape:connector-curvature="0" />
    <rect
       style="opacity:1;vector-effect:none;fill:#ffffff;fill-opacity:1;fill-rule:nonzero;stroke:none;stroke-width:9.27822495;stroke-linecap:round;stroke-linejoin:bevel;stroke-miterlimit:4;stroke-dasharray:none;stroke-dashoffset:0;stroke-opacity:1;paint-order:stroke fill markers"
       id="rect7654"
       width="0.99088144"
       height="1.0125796"
       x="77.219627"
       y="130.54169"
       ry="0.47354376" />
    <rect
       ry="0.47354376"
       y="128.22943"
       x="32.528763"
       height="1.0125796"
       width="0.99088144"
       id="rect7656"
       style="opacity:1;vector-effect:none;fill:#ffffff;fill-opacity:1;fill-rule:nonzero;stroke:none;stroke-width:9.27822495;stroke-linecap:round;stroke-linejoin:bevel;stroke-miterlimit:4;stroke-dasharray:none;stroke-dashoffset:0;stroke-opacity:1;paint-order:stroke fill markers" />
    <g
       inkscape:export-ydpi="106.04288"
       inkscape:export-xdpi="106.04288"
       transform="matrix(1.4817405,0,0,1.4817405,-731.99725,-912.91245)"
       id="g7237"
       style="fill:#ffffff;fill-opacity:1">
      <g
         style="fill:#ffffff;fill-opacity:1"
         id="g7213">
        <path
           inkscape:connector-curvature="0"
           style="opacity:1;vector-effect:none;fill:#ffffff;fill-opacity:1;fill-rule:nonzero;stroke:none;stroke-width:0.08947952;stroke-linecap:square;stroke-linejoin:miter;stroke-miterlimit:4;stroke-dasharray:none;stroke-dashoffset:0;stroke-opacity:1;paint-order:stroke fill markers"
           d="m 230.40389,699.70451 c 0,0 -10.99984,-1.6e-4 -10.99984,10.99985 v 17.99992 c 0,11 10.99984,11.00037 10.99984,11.00037 h 28.99979 v -7.00008 h -28.99979 c 0,0 -3.99974,0 -3.99975,-4.00029 v -17.99992 c 10e-6,-4 3.99975,-3.99976 3.99975,-3.99976 h 28.99979 v -7.00009 z"
           id="path7203" />
        <path
           inkscape:connector-curvature="0"
           style="opacity:1;vector-effect:none;fill:#ffffff;fill-opacity:1;fill-rule:nonzero;stroke:none;stroke-width:0.08514694;stroke-linecap:square;stroke-linejoin:miter;stroke-miterlimit:4;stroke-dasharray:none;stroke-dashoffset:0;stroke-opacity:1;paint-order:stroke fill markers"
           d="m 266.40376,699.70451 v 28.99977 c 0,11 11.00037,11.00037 11.00037,11.00037 h 28.99978 v -7.00008 h -28.99978 c 0,0 -4.00027,0 -4.00027,-4.00029 v -28.99977 z"
           id="path7205" />
        <path
           inkscape:connector-curvature="0"
           style="opacity:1;vector-effect:none;fill:#ffffff;fill-opacity:1;fill-rule:nonzero;stroke:none;stroke-width:0.07049545;stroke-linecap:square;stroke-linejoin:miter;stroke-miterlimit:4;stroke-dasharray:none;stroke-dashoffset:0;stroke-opacity:1;paint-order:stroke fill markers"
           d="m 324.40384,699.70451 c 0,0 -10.99984,-1.6e-4 -10.99984,10.99985 v 17.99992 c 0,11 10.99984,11.00037 10.99984,11.00037 h 17.99994 c 0,0 11.00036,0 11.00036,-11.00037 v -17.99992 c 0,-11.00001 -11.00036,-10.99985 -11.00036,-10.99985 z m 0,7.00009 h 17.99994 c 0,0 4.00026,-2.4e-4 4.00027,3.99976 v 17.99992 c -10e-6,4 -4.00027,4.00029 -4.00027,4.00029 h -17.99994 c 0,0 -3.99974,0 -3.99975,-4.00029 v -17.99992 c 1e-5,-4 3.99975,-3.99976 3.99975,-3.99976 z"
           id="path7207" />
        <path
           inkscape:connector-curvature="0"
           style="opacity:1;vector-effect:none;fill:#ffffff;fill-opacity:1;fill-rule:nonzero;stroke:none;stroke-width:0.08514689;stroke-linecap:square;stroke-linejoin:miter;stroke-miterlimit:4;stroke-dasharray:none;stroke-dashoffset:0;stroke-opacity:1;paint-order:stroke fill markers"
           d="m 360.4037,699.70451 v 28.99977 c 0,11 11.00037,11.00037 11.00037,11.00037 H 389.404 c 0,0 10.99986,0 10.99986,-11.00037 v -28.99977 h -7.00011 v 28.99977 c 0,4 -3.99975,4.00029 -3.99975,4.00029 h -17.99993 c 0,0 -4.00026,0 -4.00026,-4.00029 v -28.99977 z"
           id="path7209" />
        <path
           inkscape:connector-curvature="0"
           style="opacity:1;vector-effect:none;fill:#ffffff;fill-opacity:1;fill-rule:nonzero;stroke:none;stroke-width:0.07793564;stroke-linecap:square;stroke-linejoin:miter;stroke-miterlimit:4;stroke-dasharray:none;stroke-dashoffset:0;stroke-opacity:1;paint-order:stroke fill markers"
           d="m 407.40385,699.7045 v 40.00014 h 7.00008 21.99971 c 0,0 11.00034,0 11.00034,-11.00037 v -17.99992 c 0,-11.00001 -11.00034,-10.99985 -11.00034,-10.99985 h -21.99971 z m 7.00008,7.00009 h 21.99971 c 0,0 4.00026,-2.4e-4 4.00026,3.99976 v 17.99992 c 0,4 -4.00026,4.00029 -4.00026,4.00029 h -21.99971 z"
           id="path7211" />
      </g>
      <g
         style="fill:#ffffff;fill-opacity:1"
         id="g7235"
         transform="translate(-218.20206,345.73311)">
        <g
           style="fill:#ffffff;fill-opacity:1"
           id="g7217">
          <path
             inkscape:connector-curvature="0"
             style="fill:#ffffff;fill-opacity:1;stroke:none;stroke-width:0.99999994px;stroke-linecap:butt;stroke-linejoin:miter;stroke-opacity:1"
             d="m 156.83594,2452.1309 v 7.5586 30.2363 h 7.55859 v -7.5586 l 11.33789,7.5586 h 7.56055 v -3.7793 l -11.33789,-7.5606 h -0.002 -0.002 v -7.5586 h -7.55664 v -11.3378 -7.5586 z m 15.11914,26.455 h 3.7793 c 7.5586,0 7.55859,-7.5586 7.55859,-7.5586 v -11.3378 h -0.002 c 0,0 0.002,-7.5586 -7.55664,-7.5586 h -3.7793 -0.002 -7.55664 v 7.5586 h 7.5586 3.7793 v 11.3378 h -3.7793 z"
             transform="matrix(0.26458333,0,0,0.26458333,439.46746,-313.43865)"
             id="path7215" />
        </g>
        <path
           id="path7219"
           d="m 454.10613,335.35417 v 9.99991 h 1.99987 2.0004 c 0,0 2.99982,1.8e-4 2.99982,-2.99982 h -1.99988 c 0,1 -0.99994,0.99994 -0.99994,0.99994 h -2.0004 v -6.00015 h 2.0004 c 0,0 0.99994,-6e-5 0.99994,0.99994 v 3.99976 h 1.99988 v -3.99976 c 0,-3 -2.99982,-2.99982 -2.99982,-2.99982 h -2.0004 z"
           style="opacity:1;vector-effect:none;fill:#ffffff;fill-opacity:1;fill-rule:nonzero;stroke:none;stroke-width:0.05345226;stroke-linecap:square;stroke-linejoin:miter;stroke-miterlimit:4;stroke-dasharray:none;stroke-dashoffset:0;stroke-opacity:1;paint-order:stroke fill markers"
           inkscape:connector-curvature="0" />
        <path
           id="path7221"
           d="m 507.82068,335.35417 v 1.99988 h 2.49958 v 6.00015 h -2.49958 v 1.99988 h 2.49958 2.0004 2.49959 v -1.99988 h -2.49959 v -6.00015 h 2.49959 v -1.99988 h -2.49959 -2.0004 z"
           style="opacity:1;vector-effect:none;fill:#ffffff;fill-opacity:1;fill-rule:nonzero;stroke:none;stroke-width:0.05345226;stroke-linecap:square;stroke-linejoin:miter;stroke-miterlimit:4;stroke-dasharray:none;stroke-dashoffset:0;stroke-opacity:1;paint-order:stroke fill markers"
           inkscape:connector-curvature="0" />
        <path
           id="path7223"
           d="m 534.67743,335.35417 v 9.99991 h 2.0004 v -4.00027 h 2.5001 v -1.99988 h -2.5001 v -1.99988 h 4.99969 v -1.99988 h -4.99969 z"
           style="opacity:1;vector-effect:none;fill:#ffffff;fill-opacity:1;fill-rule:nonzero;stroke:none;stroke-width:0.05345226;stroke-linecap:square;stroke-linejoin:miter;stroke-miterlimit:4;stroke-dasharray:none;stroke-dashoffset:0;stroke-opacity:1;paint-order:stroke fill markers"
           inkscape:connector-curvature="0" />
        <path
           id="path7225"
           d="m 561.53471,335.35417 v 1.99988 h 2.5001 v 8.00003 h 1.99988 v -8.00003 h 2.50011 v -1.99988 h -2.50011 -1.99988 z"
           style="opacity:1;vector-effect:none;fill:#ffffff;fill-opacity:1;fill-rule:nonzero;stroke:none;stroke-width:0.05345226;stroke-linecap:square;stroke-linejoin:miter;stroke-miterlimit:4;stroke-dasharray:none;stroke-dashoffset:0;stroke-opacity:1;paint-order:stroke fill markers"
           inkscape:connector-curvature="0" />
        <path
           id="path7227"
           d="m 588.392,335.35417 v 1.99988 h 2.5001 v 6.00015 h -2.5001 v 1.99988 h 2.5001 1.99988 2.5001 v -1.99988 h -2.5001 v -6.00015 h 2.5001 v -1.99988 h -2.5001 -1.99988 z"
           style="opacity:1;vector-effect:none;fill:#ffffff;fill-opacity:1;fill-rule:nonzero;stroke:none;stroke-width:0.05345226;stroke-linecap:square;stroke-linejoin:miter;stroke-miterlimit:4;stroke-dasharray:none;stroke-dashoffset:0;stroke-opacity:1;paint-order:stroke fill markers"
           inkscape:connector-curvature="0" />
        <path
           id="path7229"
           d="m 615.24927,335.35417 v 9.99991 h 1.99988 v -5.49993 l 2.99979,5.49993 h 2.00041 v -9.99991 h -2.00041 v 5.49992 l -2.99979,-5.49992 z"
           style="opacity:1;vector-effect:none;fill:#ffffff;fill-opacity:1;fill-rule:nonzero;stroke:none;stroke-width:0.05345226;stroke-linecap:square;stroke-linejoin:miter;stroke-miterlimit:4;stroke-dasharray:none;stroke-dashoffset:0;stroke-opacity:1;paint-order:stroke fill markers"
           inkscape:connector-curvature="0" />
        <g
           style="fill:#ffffff;fill-opacity:1"
           id="g7233">
          <path
             style="opacity:1;vector-effect:none;fill:#ffffff;fill-opacity:1;fill-rule:nonzero;stroke:none;stroke-width:0.35619563;stroke-linecap:square;stroke-linejoin:miter;stroke-miterlimit:4;stroke-dasharray:none;stroke-dashoffset:0;stroke-opacity:1;paint-order:stroke fill markers"
             d="m 775.58789,2446.0664 c 0,0 -5.67041,0 -5.66992,5.6699 v 1.8887 3.7793 15.1172 3.7812 1.8887 c -4.9e-4,5.6699 5.66992,5.6699 5.66992,5.6699 h 1.88867 3.7793 7.56055 1.88867 c 0,0 5.67041,0 5.66992,-5.6699 v -1.8887 -3.7812 -7.5586 h -15.11719 v 7.5586 h 7.5586 v 3.7812 h -7.56055 -3.7793 v -3.7812 -15.1172 -3.7793 h 3.7793 7.56055 v 3.7793 h 7.55859 v -3.7793 -1.8887 c 4.9e-4,-5.6699 -5.66992,-5.6699 -5.66992,-5.6699 h -1.88867 -7.56055 -3.7793 z"
             transform="matrix(0.26458333,0,0,0.26458333,438.39838,-311.83503)"
             id="path7231"
             inkscape:connector-curvature="0" />
        </g>
      </g>
    </g>
    <g
       transform="matrix(-0.49581097,-0.54372639,0.54372639,-0.49581097,38.380297,234.55857)"
       id="g1945">
      <path
         style="fill:#ffffff;fill-opacity:1;stroke:none;stroke-width:0.20868106px;stroke-linecap:butt;stroke-linejoin:miter;stroke-opacity:1"
         d="m 55.259149,130.01827 2.718072,-3.08455 c 0,0 1.63697,0.17736 1.192465,3.20475 -0.444506,3.02739 -0.44845,3.03173 -0.44845,3.03173"
         id="path1927"
         inkscape:connector-curvature="0" />
      <path
         inkscape:connector-curvature="0"
         id="path1929"
         d="m 44.114962,142.90867 -2.635637,3.15528 c 0,0 0.424079,1.591 3.348749,0.69157 2.924671,-0.89943 2.92836,-0.90399 2.92836,-0.90399"
         style="fill:#ffffff;fill-opacity:1;stroke:none;stroke-width:0.20868106px;stroke-linecap:butt;stroke-linejoin:miter;stroke-opacity:1" />
      <g
         id="g1941"
         transform="matrix(0.34995227,0.31779971,-0.31779971,0.34995227,67.350436,54.174014)">
        <ellipse
           ry="18.653124"
           rx="19.52247"
           cy="-165.27515"
           cx="-87.249702"
           id="ellipse1931"
           style="opacity:1;vector-effect:none;fill:#d10453;fill-opacity:1;fill-rule:nonzero;stroke:none;stroke-width:0.35929701;stroke-linecap:square;stroke-linejoin:miter;stroke-miterlimit:4;stroke-dasharray:none;stroke-dashoffset:0;stroke-opacity:1;paint-order:stroke fill markers"
           transform="rotate(173.32705)" />
        <rect
           y="135.37726"
           x="89.580582"
           height="37.310089"
           width="18.09153"
           id="rect1933"
           style="opacity:1;vector-effect:none;fill:#d10453;fill-opacity:1;fill-rule:nonzero;stroke:none;stroke-width:0.31030181;stroke-linecap:square;stroke-linejoin:miter;stroke-miterlimit:4;stroke-dasharray:none;stroke-dashoffset:0;stroke-opacity:1;paint-order:stroke fill markers"
           ry="0.25077477" />
        <path
           id="path1935"
           d="m 338.57227,511.66211 v 141 h 37.43359 v -0.0644 a 30.571433,70.499996 0 0 0 0.56641,0.0644 30.571433,70.499996 0 0 0 30.57031,-70.5 30.571433,70.499996 0 0 0 -30.57031,-70.5 30.571433,70.499996 0 0 0 -0.56641,0.0469 v -0.0469 z"
           style="opacity:1;vector-effect:none;fill:#ffffff;fill-opacity:1;fill-rule:nonzero;stroke:none;stroke-width:1.625718;stroke-linecap:square;stroke-linejoin:miter;stroke-miterlimit:4;stroke-dasharray:none;stroke-dashoffset:0;stroke-opacity:1;paint-order:stroke fill markers"
           inkscape:connector-curvature="0"
           transform="scale(0.26458333)" />
        <path
           sodipodi:nodetypes="csccscc"
           inkscape:connector-curvature="0"
           id="path1937"
           transform="scale(0.26458333)"
           d="M 338.57227,511.66211 C 321.68781,511.66104 308,543.22528 308,582.16211 c 0,38.93683 13.68781,70.50107 30.57227,70.5 h 10 c 16.8837,-10e-4 30.57031,-31.56494 30.57031,-70.5 0,-38.93506 -13.68661,-70.49857 -30.57031,-70.5 z"
           style="opacity:1;vector-effect:none;fill:#d10453;fill-opacity:1;fill-rule:nonzero;stroke:none;stroke-width:1.625718;stroke-linecap:square;stroke-linejoin:miter;stroke-miterlimit:4;stroke-dasharray:none;stroke-dashoffset:0;stroke-opacity:1;paint-order:stroke fill markers" />
      </g>
      <path
         sodipodi:nodetypes="ccccccc"
         inkscape:connector-curvature="0"
         style="opacity:1;vector-effect:none;fill:#ffffff;fill-opacity:1;fill-rule:nonzero;stroke:none;stroke-width:0.9675253;stroke-linecap:square;stroke-linejoin:miter;stroke-miterlimit:4;stroke-dasharray:none;stroke-dashoffset:0;stroke-opacity:1;paint-order:stroke fill markers"
         d="m 52.842789,131.96512 c -0.03199,-0.1815 -0.105368,-0.32597 -0.22233,-0.42618 l -15.433234,-13.86216 -6.109791,9.71383 14.149774,12.77923 c 0.748612,0.64143 3.010781,-0.77082 5.052399,-3.15428 1.722553,-2.011 2.737733,-4.07069 2.563182,-5.05044 z"
         id="path1943" />
      <path
         style="opacity:1;vector-effect:none;fill:#ffffff;fill-opacity:1;fill-rule:nonzero;stroke:none;stroke-width:86.04560089;stroke-linecap:round;stroke-linejoin:bevel;stroke-miterlimit:4;stroke-dasharray:none;stroke-dashoffset:0;stroke-opacity:1;paint-order:stroke fill markers"
         d="M -178.44342,-76.581954 51.678791,130.74191 44.446411,139.50405 -185.67576,-67.819768 Z"
         id="rect2097"
         inkscape:connector-curvature="0" />
    </g>
  </g>
</svg>
