<?xml version="1.0" encoding="UTF-8" standalone="no"?>
<!-- Created with Inkscape (http://www.inkscape.org/) -->

<svg
   xmlns:dc="http://purl.org/dc/elements/1.1/"
   xmlns:cc="http://creativecommons.org/ns#"
   xmlns:rdf="http://www.w3.org/1999/02/22-rdf-syntax-ns#"
   xmlns:svg="http://www.w3.org/2000/svg"
   xmlns="http://www.w3.org/2000/svg"
   xmlns:sodipodi="http://sodipodi.sourceforge.net/DTD/sodipodi-0.dtd"
   xmlns:inkscape="http://www.inkscape.org/namespaces/inkscape"
   width="37.160522mm"
   height="37.160522mm"
   viewBox="0 0 37.160523 37.160523"
   version="1.1"
   id="svg3557"
   inkscape:version="0.92.2 (5c3e80d, 2017-08-06)"
   sodipodi:docname="itch_logo.svg">
  <defs
     id="defs3551" />
  <sodipodi:namedview
     id="base"
     pagecolor="#ffffff"
     bordercolor="#666666"
     borderopacity="1.0"
     inkscape:pageopacity="0.0"
     inkscape:pageshadow="2"
     inkscape:zoom="1.979899"
     inkscape:cx="104.50471"
     inkscape:cy="66.982438"
     inkscape:document-units="mm"
     inkscape:current-layer="layer1"
     showgrid="false"
     inkscape:window-width="1600"
     inkscape:window-height="848"
     inkscape:window-x="-8"
     inkscape:window-y="22"
     inkscape:window-maximized="1" />
  <metadata
     id="metadata3554">
    <rdf:RDF>
      <cc:Work
         rdf:about="">
        <dc:format>image/svg+xml</dc:format>
        <dc:type
           rdf:resource="http://purl.org/dc/dcmitype/StillImage" />
        <dc:title />
      </cc:Work>
    </rdf:RDF>
  </metadata>
  <g
     inkscape:label="Layer 1"
     inkscape:groupmode="layer"
     id="layer1"
     transform="translate(-102.69281,-110.16032)">
    <path
       style="opacity:0.98999999;vector-effect:none;fill:#100052;fill-opacity:0.99215686;fill-rule:nonzero;stroke:none;stroke-width:0.20523535;stroke-linecap:round;stroke-linejoin:round;stroke-miterlimit:4;stroke-dasharray:none;stroke-dashoffset:0;stroke-opacity:1;paint-order:stroke markers fill"
       d="M 240.20508,2.1484375 A 68.411777,68.411777 0 0 0 171.79297,70.560547 68.411777,68.411777 0 0 0 240.20508,138.97266 68.411777,68.411777 0 0 0 308.61719,70.560547 68.411777,68.411777 0 0 0 240.20508,2.1484375 Z M 216.26172,29.087891 252.17773,49.824219 288.09375,70.560547 252.17773,91.296875 216.26172,112.0332 V 70.560547 Z"
       transform="matrix(0.26458333,0,0,0.26458333,102.69281,110.16032)"
       id="path3499"
       inkscape:connector-curvature="0" />
    <g
       style="fill:#100052;fill-opacity:0.99215686;stroke:none"
       transform="matrix(0.0861493,0,0,0.0861493,57.546369,106.82545)"
       id="g3323">
      <g
         style="fill:#100052;fill-opacity:0.99215686;stroke:none"
         id="g3267">
        <path
           style="fill:#100052;fill-opacity:0.99215686;stroke:none"
           inkscape:connector-curvature="0"
           d="M 409.132,114.573 C 389.524,80.977 362.927,54.379 329.334,34.773 295.736,15.166 259.057,5.365 219.271,5.365 c -39.781,0 -76.472,9.804 -110.063,29.408 -33.596,19.605 -60.192,46.204 -79.8,79.8 C 9.803,148.168 0,184.854 0,224.63 c 0,47.78 13.94,90.745 41.827,128.906 27.884,38.164 63.906,64.572 108.063,79.227 5.14,0.954 8.945,0.283 11.419,-1.996 2.475,-2.282 3.711,-5.14 3.711,-8.562 0,-0.571 -0.049,-5.708 -0.144,-15.417 -0.098,-9.709 -0.144,-18.179 -0.144,-25.406 l -6.567,1.136 c -4.187,0.767 -9.469,1.092 -15.846,1 -6.374,-0.089 -12.991,-0.757 -19.842,-1.999 -6.854,-1.231 -13.229,-4.086 -19.13,-8.559 -5.898,-4.473 -10.085,-10.328 -12.56,-17.556 l -2.855,-6.57 c -1.903,-4.374 -4.899,-9.233 -8.992,-14.559 -4.093,-5.331 -8.232,-8.945 -12.419,-10.848 l -1.999,-1.431 c -1.332,-0.951 -2.568,-2.098 -3.711,-3.429 -1.142,-1.331 -1.997,-2.663 -2.568,-3.997 -0.572,-1.335 -0.098,-2.43 1.427,-3.289 1.525,-0.859 4.281,-1.276 8.28,-1.276 l 5.708,0.853 c 3.807,0.763 8.516,3.042 14.133,6.851 5.614,3.806 10.229,8.754 13.846,14.842 4.38,7.806 9.657,13.754 15.846,17.847 6.184,4.093 12.419,6.136 18.699,6.136 6.28,0 11.704,-0.476 16.274,-1.423 4.565,-0.952 8.848,-2.383 12.847,-4.285 1.713,-12.758 6.377,-22.559 13.988,-29.41 -10.848,-1.14 -20.601,-2.857 -29.264,-5.14 -8.658,-2.286 -17.605,-5.996 -26.835,-11.14 -9.235,-5.137 -16.896,-11.516 -22.985,-19.126 -6.09,-7.614 -11.088,-17.61 -14.987,-29.979 -3.901,-12.374 -5.852,-26.648 -5.852,-42.826 0,-23.035 7.52,-42.637 22.557,-58.817 -7.044,-17.318 -6.379,-36.732 1.997,-58.24 5.52,-1.715 13.706,-0.428 24.554,3.853 10.85,4.283 18.794,7.952 23.84,10.994 5.046,3.041 9.089,5.618 12.135,7.708 17.705,-4.947 35.976,-7.421 54.818,-7.421 18.842,0 37.117,2.474 54.823,7.421 l 10.849,-6.849 c 7.419,-4.57 16.18,-8.758 26.262,-12.565 10.088,-3.805 17.802,-4.853 23.134,-3.138 8.562,21.509 9.325,40.922 2.279,58.24 15.036,16.18 22.559,35.787 22.559,58.817 0,16.178 -1.958,30.497 -5.853,42.966 -3.9,12.471 -8.941,22.457 -15.125,29.979 -6.191,7.521 -13.901,13.85 -23.131,18.986 -9.232,5.14 -18.182,8.85 -26.84,11.136 -8.662,2.286 -18.415,4.004 -29.263,5.146 9.894,8.562 14.842,22.077 14.842,40.539 v 60.237 c 0,3.422 1.19,6.279 3.572,8.562 2.379,2.279 6.136,2.95 11.276,1.995 44.163,-14.653 80.185,-41.062 108.068,-79.226 27.88,-38.161 41.825,-81.126 41.825,-128.906 -0.01,-39.771 -9.818,-76.454 -29.414,-110.049 z"
           id="path3265" />
      </g>
      <g
         style="fill:#100052;fill-opacity:0.99215686;stroke:none"
         id="g3269" />
      <g
         style="fill:#100052;fill-opacity:0.99215686;stroke:none"
         id="g3271" />
      <g
         style="fill:#100052;fill-opacity:0.99215686;stroke:none"
         id="g3273" />
      <g
         style="fill:#100052;fill-opacity:0.99215686;stroke:none"
         id="g3275" />
      <g
         style="fill:#100052;fill-opacity:0.99215686;stroke:none"
         id="g3277" />
      <g
         style="fill:#100052;fill-opacity:0.99215686;stroke:none"
         id="g3279" />
      <g
         style="fill:#100052;fill-opacity:0.99215686;stroke:none"
         id="g3281" />
      <g
         style="fill:#100052;fill-opacity:0.99215686;stroke:none"
         id="g3283" />
      <g
         style="fill:#100052;fill-opacity:0.99215686;stroke:none"
         id="g3285" />
      <g
         style="fill:#100052;fill-opacity:0.99215686;stroke:none"
         id="g3287" />
      <g
         style="fill:#100052;fill-opacity:0.99215686;stroke:none"
         id="g3289" />
      <g
         style="fill:#100052;fill-opacity:0.99215686;stroke:none"
         id="g3291" />
      <g
         style="fill:#100052;fill-opacity:0.99215686;stroke:none"
         id="g3293" />
      <g
         style="fill:#100052;fill-opacity:0.99215686;stroke:none"
         id="g3295" />
      <g
         style="fill:#100052;fill-opacity:0.99215686;stroke:none"
         id="g3297" />
    </g>
    <circle
       style="opacity:0.98999999;vector-effect:none;fill:#100052;fill-opacity:1;fill-rule:nonzero;stroke:none;stroke-width:0.43388224;stroke-linecap:round;stroke-linejoin:round;stroke-miterlimit:4;stroke-dasharray:none;stroke-dashoffset:0;stroke-opacity:1;paint-order:stroke markers fill"
       id="path2051-4"
       cx="34.294033"
       cy="125.08086"
       r="18.580261" />
    <path
       style="opacity:1;vector-effect:none;fill:#ffffff;fill-opacity:1;fill-rule:nonzero;stroke:#ffffff;stroke-width:0.04354749;stroke-linecap:square;stroke-linejoin:round;stroke-miterlimit:4;stroke-dasharray:none;stroke-dashoffset:0;stroke-opacity:1;paint-order:normal"
       d="m 33.419659,115.85095 c -4.03938,0 -7.31448,3.27509 -7.31448,7.31223 0,0.57257 0.0646,1.13187 0.18932,1.66663 -2.07986,-0.13867 -6.43508,-2.17247 -10.1618,-3.63061 a 18.580262,18.580262 0 0 0 -0.41888,3.8816 18.580262,18.580262 0 0 0 13.25714,17.7933 c 7.68235,-3.60973 11.78568,-11.65247 11.78568,-18.87093 l -0.0242,-0.94696 c 1.43707,-1.02496 2.68029,-2.31265 3.65837,-3.77868 -1.3123,0.58147 -2.72035,0.97583 -4.19981,1.15189 1.51061,-0.90459 2.66701,-2.33936 3.21505,-4.04379 -1.41701,0.83771 -2.9812,1.44611 -4.64779,1.77586 -1.3345,-1.42369 -3.23256,-2.31054 -5.33805,-2.31054 z"
       id="path2476-0"
       inkscape:connector-curvature="0" />
    <path
       style="opacity:0.98999999;vector-effect:none;fill:#100052;fill-opacity:1;fill-rule:nonzero;stroke:none;stroke-width:1.63986993;stroke-linecap:round;stroke-linejoin:round;stroke-miterlimit:4;stroke-dasharray:none;stroke-dashoffset:0;stroke-opacity:1;paint-order:stroke markers fill"
       d="M 70.224609,0 A 70.224609,70.224609 0 0 0 0,70.224609 70.224609,70.224609 0 0 0 70.224609,140.44922 70.224609,70.224609 0 0 0 140.44922,70.224609 70.224609,70.224609 0 0 0 70.224609,0 Z M 42.607422,39.451172 v 0.0078 h 0.01172 c 4.866853,0.0135 9.189293,1.54e-4 14.548828,5.845704 4.168297,-0.433903 8.512492,-0.659132 12.871093,-0.658204 h 0.199219 0.0078 c 4.414174,-0.0068 8.814071,0.218816 13.035156,0.658204 5.359535,-5.84555 9.681975,-5.83237 14.548828,-5.845704 h 0.01172 v -0.0078 c 2.302264,0 11.498674,5.28e-4 17.910154,18.003906 l 6.88867,24.701172 c 5.10324,18.37567 -1.63294,18.82846 -10.03515,18.8418 -12.4635,-0.45939 -19.36133,-9.514483 -19.36133,-18.562503 -6.82049,1.119209 -14.766629,1.682822 -22.722657,1.695312 -0.09899,0 -0.197967,0.0039 -0.296875,0.0039 -0.09891,0 -0.197925,-0.0039 -0.296875,-0.0039 -7.95607,-0.01266 -15.902166,-0.576103 -22.722656,-1.695312 0,9.04802 -6.897831,18.103113 -19.361328,18.562503 -8.402209,-0.0135 -15.138392,-0.46613 -10.035156,-18.8418 L 24.697266,57.455078 C 31.108791,39.4517 40.305162,39.451172 42.607422,39.451172 Z M 70.210938,53.59375 v 0.0039 c 0,0 -13.117103,12.049075 -15.472657,16.330078 l 8.582031,-0.34375 v 7.484375 c 0,0.340438 3.259375,0.214563 6.607422,0.06055 0.103718,-0.0046 0.202839,-0.0071 0.306641,-0.01172 0,4.2e-5 0.0031,-8.5e-5 0.0039,0 0.09595,0.0042 0.187292,0.0075 0.283203,0.01172 3.348048,0.154016 6.607422,0.279891 6.607422,-0.06055 v -7.484375 l 8.582032,0.341797 C 83.355384,65.644778 70.238281,53.597656 70.238281,53.597656 v -0.0039 h -0.0039 v 0.0039 c 0,4.2e-5 -0.0093,0.0093 -0.0098,0.0098 l -0.0098,-0.0098 v -0.0039 z"
       transform="matrix(0.26458333,0,0,0.26458333,102.69281,110.16032)"
       id="circle3347"
       inkscape:connector-curvature="0" />
    <g
       id="g3356"
       style="fill:#ffffff;fill-opacity:1"
       transform="matrix(0.17615548,0,0,0.17615548,101.79916,105.66384)" />
  </g>
</svg>
