<?xml version="1.0" encoding="UTF-8" standalone="no"?>
<!-- Created with Inkscape (http://www.inkscape.org/) -->

<svg
   xmlns:dc="http://purl.org/dc/elements/1.1/"
   xmlns:cc="http://creativecommons.org/ns#"
   xmlns:rdf="http://www.w3.org/1999/02/22-rdf-syntax-ns#"
   xmlns:svg="http://www.w3.org/2000/svg"
   xmlns="http://www.w3.org/2000/svg"
   xmlns:sodipodi="http://sodipodi.sourceforge.net/DTD/sodipodi-0.dtd"
   xmlns:inkscape="http://www.inkscape.org/namespaces/inkscape"
   width="36.201233mm"
   height="36.201233mm"
   viewBox="0 0 36.201233 36.201233"
   version="1.1"
   id="svg3557"
   inkscape:version="0.92.2 (5c3e80d, 2017-08-06)"
   sodipodi:docname="play_logo.svg">
  <defs
     id="defs3551" />
  <sodipodi:namedview
     id="base"
     pagecolor="#ffffff"
     bordercolor="#666666"
     borderopacity="1.0"
     inkscape:pageopacity="0.0"
     inkscape:pageshadow="2"
     inkscape:zoom="1.4"
     inkscape:cx="-145.54606"
     inkscape:cy="28.550389"
     inkscape:document-units="mm"
     inkscape:current-layer="layer1"
     showgrid="false"
     inkscape:window-width="1600"
     inkscape:window-height="848"
     inkscape:window-x="-8"
     inkscape:window-y="22"
     inkscape:window-maximized="1" />
  <metadata
     id="metadata3554">
    <rdf:RDF>
      <cc:Work
         rdf:about="">
        <dc:format>image/svg+xml</dc:format>
        <dc:type
           rdf:resource="http://purl.org/dc/dcmitype/StillImage" />
        <dc:title />
      </cc:Work>
    </rdf:RDF>
  </metadata>
  <g
     inkscape:label="Layer 1"
     inkscape:groupmode="layer"
     id="layer1"
     transform="translate(-148.14658,-110.72885)">
    <path
       style="opacity:0.98999999;vector-effect:none;fill:#100052;fill-opacity:0.99215686;fill-rule:nonzero;stroke:none;stroke-width:0.20523535;stroke-linecap:round;stroke-linejoin:round;stroke-miterlimit:4;stroke-dasharray:none;stroke-dashoffset:0;stroke-opacity:1;paint-order:stroke markers fill"
       d="M 68.412109,0 A 68.411777,68.411777 0 0 0 0,68.412109 68.411777,68.411777 0 0 0 68.412109,136.82422 68.411777,68.411777 0 0 0 136.82422,68.412109 68.411777,68.411777 0 0 0 68.412109,0 Z M 44.466797,26.939453 80.382812,47.675781 116.30078,68.412109 80.382812,89.148438 44.466797,109.88477 V 68.412109 Z"
       transform="matrix(0.26458333,0,0,0.26458333,148.14658,110.72885)"
       id="path3499"
       inkscape:connector-curvature="0" />
    <g
       style="fill:#100052;fill-opacity:0.99215686;stroke:none"
       transform="matrix(0.0861493,0,0,0.0861493,57.546369,106.82545)"
       id="g3323">
      <g
         style="fill:#100052;fill-opacity:0.99215686;stroke:none"
         id="g3267">
        <path
           style="fill:#100052;fill-opacity:0.99215686;stroke:none"
           inkscape:connector-curvature="0"
           d="M 409.132,114.573 C 389.524,80.977 362.927,54.379 329.334,34.773 295.736,15.166 259.057,5.365 219.271,5.365 c -39.781,0 -76.472,9.804 -110.063,29.408 -33.596,19.605 -60.192,46.204 -79.8,79.8 C 9.803,148.168 0,184.854 0,224.63 c 0,47.78 13.94,90.745 41.827,128.906 27.884,38.164 63.906,64.572 108.063,79.227 5.14,0.954 8.945,0.283 11.419,-1.996 2.475,-2.282 3.711,-5.14 3.711,-8.562 0,-0.571 -0.049,-5.708 -0.144,-15.417 -0.098,-9.709 -0.144,-18.179 -0.144,-25.406 l -6.567,1.136 c -4.187,0.767 -9.469,1.092 -15.846,1 -6.374,-0.089 -12.991,-0.757 -19.842,-1.999 -6.854,-1.231 -13.229,-4.086 -19.13,-8.559 -5.898,-4.473 -10.085,-10.328 -12.56,-17.556 l -2.855,-6.57 c -1.903,-4.374 -4.899,-9.233 -8.992,-14.559 -4.093,-5.331 -8.232,-8.945 -12.419,-10.848 l -1.999,-1.431 c -1.332,-0.951 -2.568,-2.098 -3.711,-3.429 -1.142,-1.331 -1.997,-2.663 -2.568,-3.997 -0.572,-1.335 -0.098,-2.43 1.427,-3.289 1.525,-0.859 4.281,-1.276 8.28,-1.276 l 5.708,0.853 c 3.807,0.763 8.516,3.042 14.133,6.851 5.614,3.806 10.229,8.754 13.846,14.842 4.38,7.806 9.657,13.754 15.846,17.847 6.184,4.093 12.419,6.136 18.699,6.136 6.28,0 11.704,-0.476 16.274,-1.423 4.565,-0.952 8.848,-2.383 12.847,-4.285 1.713,-12.758 6.377,-22.559 13.988,-29.41 -10.848,-1.14 -20.601,-2.857 -29.264,-5.14 -8.658,-2.286 -17.605,-5.996 -26.835,-11.14 -9.235,-5.137 -16.896,-11.516 -22.985,-19.126 -6.09,-7.614 -11.088,-17.61 -14.987,-29.979 -3.901,-12.374 -5.852,-26.648 -5.852,-42.826 0,-23.035 7.52,-42.637 22.557,-58.817 -7.044,-17.318 -6.379,-36.732 1.997,-58.24 5.52,-1.715 13.706,-0.428 24.554,3.853 10.85,4.283 18.794,7.952 23.84,10.994 5.046,3.041 9.089,5.618 12.135,7.708 17.705,-4.947 35.976,-7.421 54.818,-7.421 18.842,0 37.117,2.474 54.823,7.421 l 10.849,-6.849 c 7.419,-4.57 16.18,-8.758 26.262,-12.565 10.088,-3.805 17.802,-4.853 23.134,-3.138 8.562,21.509 9.325,40.922 2.279,58.24 15.036,16.18 22.559,35.787 22.559,58.817 0,16.178 -1.958,30.497 -5.853,42.966 -3.9,12.471 -8.941,22.457 -15.125,29.979 -6.191,7.521 -13.901,13.85 -23.131,18.986 -9.232,5.14 -18.182,8.85 -26.84,11.136 -8.662,2.286 -18.415,4.004 -29.263,5.146 9.894,8.562 14.842,22.077 14.842,40.539 v 60.237 c 0,3.422 1.19,6.279 3.572,8.562 2.379,2.279 6.136,2.95 11.276,1.995 44.163,-14.653 80.185,-41.062 108.068,-79.226 27.88,-38.161 41.825,-81.126 41.825,-128.906 -0.01,-39.771 -9.818,-76.454 -29.414,-110.049 z"
           id="path3265" />
      </g>
      <g
         style="fill:#100052;fill-opacity:0.99215686;stroke:none"
         id="g3269" />
      <g
         style="fill:#100052;fill-opacity:0.99215686;stroke:none"
         id="g3271" />
      <g
         style="fill:#100052;fill-opacity:0.99215686;stroke:none"
         id="g3273" />
      <g
         style="fill:#100052;fill-opacity:0.99215686;stroke:none"
         id="g3275" />
      <g
         style="fill:#100052;fill-opacity:0.99215686;stroke:none"
         id="g3277" />
      <g
         style="fill:#100052;fill-opacity:0.99215686;stroke:none"
         id="g3279" />
      <g
         style="fill:#100052;fill-opacity:0.99215686;stroke:none"
         id="g3281" />
      <g
         style="fill:#100052;fill-opacity:0.99215686;stroke:none"
         id="g3283" />
      <g
         style="fill:#100052;fill-opacity:0.99215686;stroke:none"
         id="g3285" />
      <g
         style="fill:#100052;fill-opacity:0.99215686;stroke:none"
         id="g3287" />
      <g
         style="fill:#100052;fill-opacity:0.99215686;stroke:none"
         id="g3289" />
      <g
         style="fill:#100052;fill-opacity:0.99215686;stroke:none"
         id="g3291" />
      <g
         style="fill:#100052;fill-opacity:0.99215686;stroke:none"
         id="g3293" />
      <g
         style="fill:#100052;fill-opacity:0.99215686;stroke:none"
         id="g3295" />
      <g
         style="fill:#100052;fill-opacity:0.99215686;stroke:none"
         id="g3297" />
    </g>
    <circle
       style="opacity:0.98999999;vector-effect:none;fill:#100052;fill-opacity:1;fill-rule:nonzero;stroke:none;stroke-width:0.43388224;stroke-linecap:round;stroke-linejoin:round;stroke-miterlimit:4;stroke-dasharray:none;stroke-dashoffset:0;stroke-opacity:1;paint-order:stroke markers fill"
       id="path2051-4"
       cx="34.294033"
       cy="125.08086"
       r="18.580261" />
    <path
       style="opacity:1;vector-effect:none;fill:#ffffff;fill-opacity:1;fill-rule:nonzero;stroke:#ffffff;stroke-width:0.04354749;stroke-linecap:square;stroke-linejoin:round;stroke-miterlimit:4;stroke-dasharray:none;stroke-dashoffset:0;stroke-opacity:1;paint-order:normal"
       d="m 33.419659,115.85095 c -4.03938,0 -7.31448,3.27509 -7.31448,7.31223 0,0.57257 0.0646,1.13187 0.18932,1.66663 -2.07986,-0.13867 -6.43508,-2.17247 -10.1618,-3.63061 a 18.580262,18.580262 0 0 0 -0.41888,3.8816 18.580262,18.580262 0 0 0 13.25714,17.7933 c 7.68235,-3.60973 11.78568,-11.65247 11.78568,-18.87093 l -0.0242,-0.94696 c 1.43707,-1.02496 2.68029,-2.31265 3.65837,-3.77868 -1.3123,0.58147 -2.72035,0.97583 -4.19981,1.15189 1.51061,-0.90459 2.66701,-2.33936 3.21505,-4.04379 -1.41701,0.83771 -2.9812,1.44611 -4.64779,1.77586 -1.3345,-1.42369 -3.23256,-2.31054 -5.33805,-2.31054 z"
       id="path2476-0"
       inkscape:connector-curvature="0" />
    <circle
       r="18.580261"
       cy="128.74059"
       cx="121.27307"
       id="circle3347"
       style="opacity:0.98999999;vector-effect:none;fill:#100052;fill-opacity:1;fill-rule:nonzero;stroke:none;stroke-width:0.43388224;stroke-linecap:round;stroke-linejoin:round;stroke-miterlimit:4;stroke-dasharray:none;stroke-dashoffset:0;stroke-opacity:1;paint-order:stroke markers fill" />
    <g
       id="g3356"
       style="fill:#ffffff;fill-opacity:1"
       transform="matrix(0.17615548,0,0,0.17615548,101.79916,105.66384)">
      <path
         style="color:#000000;fill:#ffffff;fill-opacity:1;stroke-width:1.57783508"
         d="m 6984.8496,-1393.6348 v 0.016 h 0.031 c 11.5339,0.032 21.775,2e-4 34.4765,13.8535 9.8784,-1.0283 20.1726,-1.5608 30.502,-1.5586 h 0.4746 0.016 c 10.4611,-0.016 20.891,0.5192 30.8945,1.5605 12.7015,-13.8533 22.9427,-13.8219 34.4766,-13.8535 h 0.031 v -0.018 c 5.4561,0 27.2488,0 42.4433,42.666 l 16.3262,58.5372 c 12.0941,43.5483 -3.8709,44.6207 -23.7832,44.6523 -29.5371,-1.0887 -45.8828,-22.5474 -45.8828,-43.9902 -16.1638,2.6524 -34.9967,3.9879 -53.8516,4.0175 v 0 c -0.2346,0 -0.4687,0.01 -0.7031,0.01 -0.2344,0 -0.4686,-0.01 -0.7031,-0.01 v 0 c -18.855,-0.03 -37.6878,-1.3651 -53.8516,-4.0175 0,21.4428 -16.3457,42.9015 -45.8828,43.9902 -19.9123,-0.032 -35.8773,-1.104 -23.7832,-44.6523 l 16.3261,-58.5372 c 15.1946,-42.666 36.9873,-42.666 42.4434,-42.666 z m 65.4297,33.5157 h -0.012 v 0.01 c 0,0 -31.0856,28.5517 -36.668,38.6972 l 20.3379,-0.8125 v 17.7364 c 0,0.8068 7.7276,0.5095 15.6621,0.1445 v 0 c 0.2458,-0.011 0.4767,-0.02 0.7227,-0.031 0,10e-5 0.01,-2e-4 0.012,0 0.2274,0.01 0.4407,0.019 0.668,0.029 7.9345,0.365 15.6621,0.6622 15.6621,-0.1446 v -17.7363 l 20.3379,0.8125 c -5.5824,-10.1455 -36.668,-38.6973 -36.668,-38.6973 v -0.01 h -0.012 v 0.012 c 0,1e-4 -0.019,0.019 -0.02,0.02 l -0.023,-0.022 z"
         transform="matrix(0.63377981,0,0,0.63377981,-4357.7887,968.03967)"
         id="path3354"
         inkscape:connector-curvature="0"
         sodipodi:nodetypes="cccccccccccccccccscccccccccccccscccccscccccsccc" />
    </g>
  </g>
</svg>
